<svg>
	<symbol id="logo" viewBox="0 0 129 19" xmlns="http://www.w3.org/2000/svg">
    <path d="M4.03906 0.9375V18H0.523438V0.9375H4.03906ZM14.2578 0.9375L7.49609 9.36328L3.59375 13.5586L2.96094 10.2305L5.59766 6.62109L9.94531 0.9375H14.2578ZM10.2617 18L5.23438 10.1133L7.83594 7.93359L14.4219 18H10.2617ZM24.6641 13.5352C24.6641 13.2305 24.6172 12.957 24.5234 12.7148C24.4375 12.4648 24.2734 12.2383 24.0312 12.0352C23.7891 11.8242 23.4492 11.6172 23.0117 11.4141C22.5742 11.2109 22.0078 11 21.3125 10.7812C20.5391 10.5312 19.8047 10.25 19.1094 9.9375C18.4219 9.625 17.8125 9.26172 17.2812 8.84766C16.7578 8.42578 16.3438 7.9375 16.0391 7.38281C15.7422 6.82812 15.5938 6.18359 15.5938 5.44922C15.5938 4.73828 15.75 4.09375 16.0625 3.51562C16.375 2.92969 16.8125 2.42969 17.375 2.01562C17.9375 1.59375 18.6016 1.26953 19.3672 1.04297C20.1406 0.816406 20.9883 0.703125 21.9102 0.703125C23.168 0.703125 24.2656 0.929687 25.2031 1.38281C26.1406 1.83594 26.8672 2.45703 27.3828 3.24609C27.9062 4.03516 28.168 4.9375 28.168 5.95312H24.6758C24.6758 5.45312 24.5703 5.01562 24.3594 4.64062C24.1562 4.25781 23.8438 3.95703 23.4219 3.73828C23.0078 3.51953 22.4844 3.41016 21.8516 3.41016C21.2422 3.41016 20.7344 3.50391 20.3281 3.69141C19.9219 3.87109 19.6172 4.11719 19.4141 4.42969C19.2109 4.73438 19.1094 5.07812 19.1094 5.46094C19.1094 5.75 19.1797 6.01172 19.3203 6.24609C19.4688 6.48047 19.6875 6.69922 19.9766 6.90234C20.2656 7.10547 20.6211 7.29688 21.043 7.47656C21.4648 7.65625 21.9531 7.83203 22.5078 8.00391C23.4375 8.28516 24.2539 8.60156 24.957 8.95312C25.668 9.30469 26.2617 9.69922 26.7383 10.1367C27.2148 10.5742 27.5742 11.0703 27.8164 11.625C28.0586 12.1797 28.1797 12.8086 28.1797 13.5117C28.1797 14.2539 28.0352 14.918 27.7461 15.5039C27.457 16.0898 27.0391 16.5859 26.4922 16.9922C25.9453 17.3984 25.293 17.707 24.5352 17.918C23.7773 18.1289 22.9297 18.2344 21.9922 18.2344C21.1484 18.2344 20.3164 18.125 19.4961 17.9062C18.6758 17.6797 17.9297 17.3398 17.2578 16.8867C16.5938 16.4336 16.0625 15.8555 15.6641 15.1523C15.2656 14.4492 15.0664 13.6172 15.0664 12.6562H18.5938C18.5938 13.1875 18.6758 13.6367 18.8398 14.0039C19.0039 14.3711 19.2344 14.668 19.5312 14.8945C19.8359 15.1211 20.1953 15.2852 20.6094 15.3867C21.0312 15.4883 21.4922 15.5391 21.9922 15.5391C22.6016 15.5391 23.1016 15.4531 23.4922 15.2812C23.8906 15.1094 24.1836 14.8711 24.3711 14.5664C24.5664 14.2617 24.6641 13.918 24.6641 13.5352ZM36.7227 14.4375L40.7422 0.9375H44.6562L38.7148 18H36.1367L36.7227 14.4375ZM33.0195 0.9375L37.0273 14.4375L37.6367 18H35.0352L29.1289 0.9375H33.0195Z" fill="#FD871F"/>
    <path d="M50.8906 9.85547V11.6367H45.1719V9.85547H50.8906ZM62.4336 13.6875C62.4336 13.2891 62.3711 12.9375 62.2461 12.6328C62.1289 12.3203 61.918 12.0391 61.6133 11.7891C61.3164 11.5391 60.9023 11.3008 60.3711 11.0742C59.8477 10.8477 59.1836 10.6172 58.3789 10.3828C57.5352 10.1328 56.7734 9.85547 56.0938 9.55078C55.4141 9.23828 54.832 8.88281 54.3477 8.48438C53.8633 8.08594 53.4922 7.62891 53.2344 7.11328C52.9766 6.59766 52.8477 6.00781 52.8477 5.34375C52.8477 4.67969 52.9844 4.06641 53.2578 3.50391C53.5312 2.94141 53.9219 2.45312 54.4297 2.03906C54.9453 1.61719 55.5586 1.28906 56.2695 1.05469C56.9805 0.820312 57.7734 0.703125 58.6484 0.703125C59.9297 0.703125 61.0156 0.949219 61.9062 1.44141C62.8047 1.92578 63.4883 2.5625 63.957 3.35156C64.4258 4.13281 64.6602 4.96875 64.6602 5.85938H62.4102C62.4102 5.21875 62.2734 4.65234 62 4.16016C61.7266 3.66016 61.3125 3.26953 60.7578 2.98828C60.2031 2.69922 59.5 2.55469 58.6484 2.55469C57.8438 2.55469 57.1797 2.67578 56.6562 2.91797C56.1328 3.16016 55.7422 3.48828 55.4844 3.90234C55.2344 4.31641 55.1094 4.78906 55.1094 5.32031C55.1094 5.67969 55.1836 6.00781 55.332 6.30469C55.4883 6.59375 55.7266 6.86328 56.0469 7.11328C56.375 7.36328 56.7891 7.59375 57.2891 7.80469C57.7969 8.01562 58.4023 8.21875 59.1055 8.41406C60.0742 8.6875 60.9102 8.99219 61.6133 9.32812C62.3164 9.66406 62.8945 10.043 63.3477 10.4648C63.8086 10.8789 64.1484 11.3516 64.3672 11.8828C64.5938 12.4062 64.707 13 64.707 13.6641C64.707 14.3594 64.5664 14.9883 64.2852 15.5508C64.0039 16.1133 63.6016 16.5938 63.0781 16.9922C62.5547 17.3906 61.9258 17.6992 61.1914 17.918C60.4648 18.1289 59.6523 18.2344 58.7539 18.2344C57.9648 18.2344 57.1875 18.125 56.4219 17.9062C55.6641 17.6875 54.9727 17.3594 54.3477 16.9219C53.7305 16.4844 53.2344 15.9453 52.8594 15.3047C52.4922 14.6562 52.3086 13.9062 52.3086 13.0547H54.5586C54.5586 13.6406 54.6719 14.1445 54.8984 14.5664C55.125 14.9805 55.4336 15.3242 55.8242 15.5977C56.2227 15.8711 56.6719 16.0742 57.1719 16.207C57.6797 16.332 58.207 16.3945 58.7539 16.3945C59.543 16.3945 60.2109 16.2852 60.7578 16.0664C61.3047 15.8477 61.7188 15.5352 62 15.1289C62.2891 14.7227 62.4336 14.2422 62.4336 13.6875ZM72.5234 18.2344C71.6406 18.2344 70.8398 18.0859 70.1211 17.7891C69.4102 17.4844 68.7969 17.0586 68.2812 16.5117C67.7734 15.9648 67.3828 15.3164 67.1094 14.5664C66.8359 13.8164 66.6992 12.9961 66.6992 12.1055V11.6133C66.6992 10.582 66.8516 9.66406 67.1562 8.85938C67.4609 8.04688 67.875 7.35938 68.3984 6.79688C68.9219 6.23438 69.5156 5.80859 70.1797 5.51953C70.8438 5.23047 71.5312 5.08594 72.2422 5.08594C73.1484 5.08594 73.9297 5.24219 74.5859 5.55469C75.25 5.86719 75.793 6.30469 76.2148 6.86719C76.6367 7.42188 76.9492 8.07812 77.1523 8.83594C77.3555 9.58594 77.457 10.4062 77.457 11.2969V12.2695H67.9883V10.5H75.2891V10.3359C75.2578 9.77344 75.1406 9.22656 74.9375 8.69531C74.7422 8.16406 74.4297 7.72656 74 7.38281C73.5703 7.03906 72.9844 6.86719 72.2422 6.86719C71.75 6.86719 71.2969 6.97266 70.8828 7.18359C70.4688 7.38672 70.1133 7.69141 69.8164 8.09766C69.5195 8.50391 69.2891 9 69.125 9.58594C68.9609 10.1719 68.8789 10.8477 68.8789 11.6133V12.1055C68.8789 12.707 68.9609 13.2734 69.125 13.8047C69.2969 14.3281 69.543 14.7891 69.8633 15.1875C70.1914 15.5859 70.5859 15.8984 71.0469 16.125C71.5156 16.3516 72.0469 16.4648 72.6406 16.4648C73.4062 16.4648 74.0547 16.3086 74.5859 15.9961C75.1172 15.6836 75.582 15.2656 75.9805 14.7422L77.293 15.7852C77.0195 16.1992 76.6719 16.5938 76.25 16.9688C75.8281 17.3438 75.3086 17.6484 74.6914 17.8828C74.082 18.1172 73.3594 18.2344 72.5234 18.2344ZM82.1562 7.3125V18H79.9883V5.32031H82.0977L82.1562 7.3125ZM86.1172 5.25L86.1055 7.26562C85.9258 7.22656 85.7539 7.20312 85.5898 7.19531C85.4336 7.17969 85.2539 7.17188 85.0508 7.17188C84.5508 7.17188 84.1094 7.25 83.7266 7.40625C83.3438 7.5625 83.0195 7.78125 82.7539 8.0625C82.4883 8.34375 82.2773 8.67969 82.1211 9.07031C81.9727 9.45312 81.875 9.875 81.8281 10.3359L81.2188 10.6875C81.2188 9.92188 81.293 9.20312 81.4414 8.53125C81.5977 7.85938 81.8359 7.26562 82.1562 6.75C82.4766 6.22656 82.8828 5.82031 83.375 5.53125C83.875 5.23438 84.4688 5.08594 85.1562 5.08594C85.3125 5.08594 85.4922 5.10547 85.6953 5.14453C85.8984 5.17578 86.0391 5.21094 86.1172 5.25ZM92.1875 16.043L95.6562 5.32031H97.8711L93.3125 18H91.8594L92.1875 16.043ZM89.293 5.32031L92.8672 16.1016L93.1133 18H91.6602L87.0664 5.32031H89.293ZM102.312 5.32031V18H100.133V5.32031H102.312ZM99.9688 1.95703C99.9688 1.60547 100.074 1.30859 100.285 1.06641C100.504 0.824219 100.824 0.703125 101.246 0.703125C101.66 0.703125 101.977 0.824219 102.195 1.06641C102.422 1.30859 102.535 1.60547 102.535 1.95703C102.535 2.29297 102.422 2.58203 102.195 2.82422C101.977 3.05859 101.66 3.17578 101.246 3.17578C100.824 3.17578 100.504 3.05859 100.285 2.82422C100.074 2.58203 99.9688 2.29297 99.9688 1.95703ZM110.867 16.4531C111.383 16.4531 111.859 16.3477 112.297 16.1367C112.734 15.9258 113.094 15.6367 113.375 15.2695C113.656 14.8945 113.816 14.4688 113.855 13.9922H115.918C115.879 14.7422 115.625 15.4414 115.156 16.0898C114.695 16.7305 114.09 17.25 113.34 17.6484C112.59 18.0391 111.766 18.2344 110.867 18.2344C109.914 18.2344 109.082 18.0664 108.371 17.7305C107.668 17.3945 107.082 16.9336 106.613 16.3477C106.152 15.7617 105.805 15.0898 105.57 14.332C105.344 13.5664 105.23 12.7578 105.23 11.9062V11.4141C105.23 10.5625 105.344 9.75781 105.57 9C105.805 8.23438 106.152 7.55859 106.613 6.97266C107.082 6.38672 107.668 5.92578 108.371 5.58984C109.082 5.25391 109.914 5.08594 110.867 5.08594C111.859 5.08594 112.727 5.28906 113.469 5.69531C114.211 6.09375 114.793 6.64062 115.215 7.33594C115.645 8.02344 115.879 8.80469 115.918 9.67969H113.855C113.816 9.15625 113.668 8.68359 113.41 8.26172C113.16 7.83984 112.816 7.50391 112.379 7.25391C111.949 6.99609 111.445 6.86719 110.867 6.86719C110.203 6.86719 109.645 7 109.191 7.26562C108.746 7.52344 108.391 7.875 108.125 8.32031C107.867 8.75781 107.68 9.24609 107.562 9.78516C107.453 10.3164 107.398 10.8594 107.398 11.4141V11.9062C107.398 12.4609 107.453 13.0078 107.562 13.5469C107.672 14.0859 107.855 14.5742 108.113 15.0117C108.379 15.4492 108.734 15.8008 109.18 16.0664C109.633 16.3242 110.195 16.4531 110.867 16.4531ZM123.617 18.2344C122.734 18.2344 121.934 18.0859 121.215 17.7891C120.504 17.4844 119.891 17.0586 119.375 16.5117C118.867 15.9648 118.477 15.3164 118.203 14.5664C117.93 13.8164 117.793 12.9961 117.793 12.1055V11.6133C117.793 10.582 117.945 9.66406 118.25 8.85938C118.555 8.04688 118.969 7.35938 119.492 6.79688C120.016 6.23438 120.609 5.80859 121.273 5.51953C121.938 5.23047 122.625 5.08594 123.336 5.08594C124.242 5.08594 125.023 5.24219 125.68 5.55469C126.344 5.86719 126.887 6.30469 127.309 6.86719C127.73 7.42188 128.043 8.07812 128.246 8.83594C128.449 9.58594 128.551 10.4062 128.551 11.2969V12.2695H119.082V10.5H126.383V10.3359C126.352 9.77344 126.234 9.22656 126.031 8.69531C125.836 8.16406 125.523 7.72656 125.094 7.38281C124.664 7.03906 124.078 6.86719 123.336 6.86719C122.844 6.86719 122.391 6.97266 121.977 7.18359C121.562 7.38672 121.207 7.69141 120.91 8.09766C120.613 8.50391 120.383 9 120.219 9.58594C120.055 10.1719 119.973 10.8477 119.973 11.6133V12.1055C119.973 12.707 120.055 13.2734 120.219 13.8047C120.391 14.3281 120.637 14.7891 120.957 15.1875C121.285 15.5859 121.68 15.8984 122.141 16.125C122.609 16.3516 123.141 16.4648 123.734 16.4648C124.5 16.4648 125.148 16.3086 125.68 15.9961C126.211 15.6836 126.676 15.2656 127.074 14.7422L128.387 15.7852C128.113 16.1992 127.766 16.5938 127.344 16.9688C126.922 17.3438 126.402 17.6484 125.785 17.8828C125.176 18.1172 124.453 18.2344 123.617 18.2344Z" fill="#515769"/>
  </symbol>
  <symbol id="logo-white" viewBox="0 0 129 19" xmlns="http://www.w3.org/2000/svg">
    <path d="M4.03906 0.9375V18H0.523438V0.9375H4.03906ZM14.2578 0.9375L7.49609 9.36328L3.59375 13.5586L2.96094 10.2305L5.59766 6.62109L9.94531 0.9375H14.2578ZM10.2617 18L5.23438 10.1133L7.83594 7.93359L14.4219 18H10.2617ZM24.6641 13.5352C24.6641 13.2305 24.6172 12.957 24.5234 12.7148C24.4375 12.4648 24.2734 12.2383 24.0312 12.0352C23.7891 11.8242 23.4492 11.6172 23.0117 11.4141C22.5742 11.2109 22.0078 11 21.3125 10.7812C20.5391 10.5312 19.8047 10.25 19.1094 9.9375C18.4219 9.625 17.8125 9.26172 17.2812 8.84766C16.7578 8.42578 16.3438 7.9375 16.0391 7.38281C15.7422 6.82812 15.5938 6.18359 15.5938 5.44922C15.5938 4.73828 15.75 4.09375 16.0625 3.51562C16.375 2.92969 16.8125 2.42969 17.375 2.01562C17.9375 1.59375 18.6016 1.26953 19.3672 1.04297C20.1406 0.816406 20.9883 0.703125 21.9102 0.703125C23.168 0.703125 24.2656 0.929687 25.2031 1.38281C26.1406 1.83594 26.8672 2.45703 27.3828 3.24609C27.9062 4.03516 28.168 4.9375 28.168 5.95312H24.6758C24.6758 5.45312 24.5703 5.01562 24.3594 4.64062C24.1562 4.25781 23.8438 3.95703 23.4219 3.73828C23.0078 3.51953 22.4844 3.41016 21.8516 3.41016C21.2422 3.41016 20.7344 3.50391 20.3281 3.69141C19.9219 3.87109 19.6172 4.11719 19.4141 4.42969C19.2109 4.73438 19.1094 5.07812 19.1094 5.46094C19.1094 5.75 19.1797 6.01172 19.3203 6.24609C19.4688 6.48047 19.6875 6.69922 19.9766 6.90234C20.2656 7.10547 20.6211 7.29688 21.043 7.47656C21.4648 7.65625 21.9531 7.83203 22.5078 8.00391C23.4375 8.28516 24.2539 8.60156 24.957 8.95312C25.668 9.30469 26.2617 9.69922 26.7383 10.1367C27.2148 10.5742 27.5742 11.0703 27.8164 11.625C28.0586 12.1797 28.1797 12.8086 28.1797 13.5117C28.1797 14.2539 28.0352 14.918 27.7461 15.5039C27.457 16.0898 27.0391 16.5859 26.4922 16.9922C25.9453 17.3984 25.293 17.707 24.5352 17.918C23.7773 18.1289 22.9297 18.2344 21.9922 18.2344C21.1484 18.2344 20.3164 18.125 19.4961 17.9062C18.6758 17.6797 17.9297 17.3398 17.2578 16.8867C16.5938 16.4336 16.0625 15.8555 15.6641 15.1523C15.2656 14.4492 15.0664 13.6172 15.0664 12.6562H18.5938C18.5938 13.1875 18.6758 13.6367 18.8398 14.0039C19.0039 14.3711 19.2344 14.668 19.5312 14.8945C19.8359 15.1211 20.1953 15.2852 20.6094 15.3867C21.0312 15.4883 21.4922 15.5391 21.9922 15.5391C22.6016 15.5391 23.1016 15.4531 23.4922 15.2812C23.8906 15.1094 24.1836 14.8711 24.3711 14.5664C24.5664 14.2617 24.6641 13.918 24.6641 13.5352ZM36.7227 14.4375L40.7422 0.9375H44.6562L38.7148 18H36.1367L36.7227 14.4375ZM33.0195 0.9375L37.0273 14.4375L37.6367 18H35.0352L29.1289 0.9375H33.0195Z" fill="#F3F4F5"/>
    <path d="M50.8906 9.85547V11.6367H45.1719V9.85547H50.8906ZM62.4336 13.6875C62.4336 13.2891 62.3711 12.9375 62.2461 12.6328C62.1289 12.3203 61.918 12.0391 61.6133 11.7891C61.3164 11.5391 60.9023 11.3008 60.3711 11.0742C59.8477 10.8477 59.1836 10.6172 58.3789 10.3828C57.5352 10.1328 56.7734 9.85547 56.0938 9.55078C55.4141 9.23828 54.832 8.88281 54.3477 8.48438C53.8633 8.08594 53.4922 7.62891 53.2344 7.11328C52.9766 6.59766 52.8477 6.00781 52.8477 5.34375C52.8477 4.67969 52.9844 4.06641 53.2578 3.50391C53.5312 2.94141 53.9219 2.45312 54.4297 2.03906C54.9453 1.61719 55.5586 1.28906 56.2695 1.05469C56.9805 0.820312 57.7734 0.703125 58.6484 0.703125C59.9297 0.703125 61.0156 0.949219 61.9062 1.44141C62.8047 1.92578 63.4883 2.5625 63.957 3.35156C64.4258 4.13281 64.6602 4.96875 64.6602 5.85938H62.4102C62.4102 5.21875 62.2734 4.65234 62 4.16016C61.7266 3.66016 61.3125 3.26953 60.7578 2.98828C60.2031 2.69922 59.5 2.55469 58.6484 2.55469C57.8438 2.55469 57.1797 2.67578 56.6562 2.91797C56.1328 3.16016 55.7422 3.48828 55.4844 3.90234C55.2344 4.31641 55.1094 4.78906 55.1094 5.32031C55.1094 5.67969 55.1836 6.00781 55.332 6.30469C55.4883 6.59375 55.7266 6.86328 56.0469 7.11328C56.375 7.36328 56.7891 7.59375 57.2891 7.80469C57.7969 8.01562 58.4023 8.21875 59.1055 8.41406C60.0742 8.6875 60.9102 8.99219 61.6133 9.32812C62.3164 9.66406 62.8945 10.043 63.3477 10.4648C63.8086 10.8789 64.1484 11.3516 64.3672 11.8828C64.5938 12.4062 64.707 13 64.707 13.6641C64.707 14.3594 64.5664 14.9883 64.2852 15.5508C64.0039 16.1133 63.6016 16.5938 63.0781 16.9922C62.5547 17.3906 61.9258 17.6992 61.1914 17.918C60.4648 18.1289 59.6523 18.2344 58.7539 18.2344C57.9648 18.2344 57.1875 18.125 56.4219 17.9062C55.6641 17.6875 54.9727 17.3594 54.3477 16.9219C53.7305 16.4844 53.2344 15.9453 52.8594 15.3047C52.4922 14.6562 52.3086 13.9062 52.3086 13.0547H54.5586C54.5586 13.6406 54.6719 14.1445 54.8984 14.5664C55.125 14.9805 55.4336 15.3242 55.8242 15.5977C56.2227 15.8711 56.6719 16.0742 57.1719 16.207C57.6797 16.332 58.207 16.3945 58.7539 16.3945C59.543 16.3945 60.2109 16.2852 60.7578 16.0664C61.3047 15.8477 61.7188 15.5352 62 15.1289C62.2891 14.7227 62.4336 14.2422 62.4336 13.6875ZM72.5234 18.2344C71.6406 18.2344 70.8398 18.0859 70.1211 17.7891C69.4102 17.4844 68.7969 17.0586 68.2812 16.5117C67.7734 15.9648 67.3828 15.3164 67.1094 14.5664C66.8359 13.8164 66.6992 12.9961 66.6992 12.1055V11.6133C66.6992 10.582 66.8516 9.66406 67.1562 8.85938C67.4609 8.04688 67.875 7.35938 68.3984 6.79688C68.9219 6.23438 69.5156 5.80859 70.1797 5.51953C70.8438 5.23047 71.5312 5.08594 72.2422 5.08594C73.1484 5.08594 73.9297 5.24219 74.5859 5.55469C75.25 5.86719 75.793 6.30469 76.2148 6.86719C76.6367 7.42188 76.9492 8.07812 77.1523 8.83594C77.3555 9.58594 77.457 10.4062 77.457 11.2969V12.2695H67.9883V10.5H75.2891V10.3359C75.2578 9.77344 75.1406 9.22656 74.9375 8.69531C74.7422 8.16406 74.4297 7.72656 74 7.38281C73.5703 7.03906 72.9844 6.86719 72.2422 6.86719C71.75 6.86719 71.2969 6.97266 70.8828 7.18359C70.4688 7.38672 70.1133 7.69141 69.8164 8.09766C69.5195 8.50391 69.2891 9 69.125 9.58594C68.9609 10.1719 68.8789 10.8477 68.8789 11.6133V12.1055C68.8789 12.707 68.9609 13.2734 69.125 13.8047C69.2969 14.3281 69.543 14.7891 69.8633 15.1875C70.1914 15.5859 70.5859 15.8984 71.0469 16.125C71.5156 16.3516 72.0469 16.4648 72.6406 16.4648C73.4062 16.4648 74.0547 16.3086 74.5859 15.9961C75.1172 15.6836 75.582 15.2656 75.9805 14.7422L77.293 15.7852C77.0195 16.1992 76.6719 16.5938 76.25 16.9688C75.8281 17.3438 75.3086 17.6484 74.6914 17.8828C74.082 18.1172 73.3594 18.2344 72.5234 18.2344ZM82.1562 7.3125V18H79.9883V5.32031H82.0977L82.1562 7.3125ZM86.1172 5.25L86.1055 7.26562C85.9258 7.22656 85.7539 7.20312 85.5898 7.19531C85.4336 7.17969 85.2539 7.17188 85.0508 7.17188C84.5508 7.17188 84.1094 7.25 83.7266 7.40625C83.3438 7.5625 83.0195 7.78125 82.7539 8.0625C82.4883 8.34375 82.2773 8.67969 82.1211 9.07031C81.9727 9.45312 81.875 9.875 81.8281 10.3359L81.2188 10.6875C81.2188 9.92188 81.293 9.20312 81.4414 8.53125C81.5977 7.85938 81.8359 7.26562 82.1562 6.75C82.4766 6.22656 82.8828 5.82031 83.375 5.53125C83.875 5.23438 84.4688 5.08594 85.1562 5.08594C85.3125 5.08594 85.4922 5.10547 85.6953 5.14453C85.8984 5.17578 86.0391 5.21094 86.1172 5.25ZM92.1875 16.043L95.6562 5.32031H97.8711L93.3125 18H91.8594L92.1875 16.043ZM89.293 5.32031L92.8672 16.1016L93.1133 18H91.6602L87.0664 5.32031H89.293ZM102.312 5.32031V18H100.133V5.32031H102.312ZM99.9688 1.95703C99.9688 1.60547 100.074 1.30859 100.285 1.06641C100.504 0.824219 100.824 0.703125 101.246 0.703125C101.66 0.703125 101.977 0.824219 102.195 1.06641C102.422 1.30859 102.535 1.60547 102.535 1.95703C102.535 2.29297 102.422 2.58203 102.195 2.82422C101.977 3.05859 101.66 3.17578 101.246 3.17578C100.824 3.17578 100.504 3.05859 100.285 2.82422C100.074 2.58203 99.9688 2.29297 99.9688 1.95703ZM110.867 16.4531C111.383 16.4531 111.859 16.3477 112.297 16.1367C112.734 15.9258 113.094 15.6367 113.375 15.2695C113.656 14.8945 113.816 14.4688 113.855 13.9922H115.918C115.879 14.7422 115.625 15.4414 115.156 16.0898C114.695 16.7305 114.09 17.25 113.34 17.6484C112.59 18.0391 111.766 18.2344 110.867 18.2344C109.914 18.2344 109.082 18.0664 108.371 17.7305C107.668 17.3945 107.082 16.9336 106.613 16.3477C106.152 15.7617 105.805 15.0898 105.57 14.332C105.344 13.5664 105.23 12.7578 105.23 11.9062V11.4141C105.23 10.5625 105.344 9.75781 105.57 9C105.805 8.23438 106.152 7.55859 106.613 6.97266C107.082 6.38672 107.668 5.92578 108.371 5.58984C109.082 5.25391 109.914 5.08594 110.867 5.08594C111.859 5.08594 112.727 5.28906 113.469 5.69531C114.211 6.09375 114.793 6.64062 115.215 7.33594C115.645 8.02344 115.879 8.80469 115.918 9.67969H113.855C113.816 9.15625 113.668 8.68359 113.41 8.26172C113.16 7.83984 112.816 7.50391 112.379 7.25391C111.949 6.99609 111.445 6.86719 110.867 6.86719C110.203 6.86719 109.645 7 109.191 7.26562C108.746 7.52344 108.391 7.875 108.125 8.32031C107.867 8.75781 107.68 9.24609 107.562 9.78516C107.453 10.3164 107.398 10.8594 107.398 11.4141V11.9062C107.398 12.4609 107.453 13.0078 107.562 13.5469C107.672 14.0859 107.855 14.5742 108.113 15.0117C108.379 15.4492 108.734 15.8008 109.18 16.0664C109.633 16.3242 110.195 16.4531 110.867 16.4531ZM123.617 18.2344C122.734 18.2344 121.934 18.0859 121.215 17.7891C120.504 17.4844 119.891 17.0586 119.375 16.5117C118.867 15.9648 118.477 15.3164 118.203 14.5664C117.93 13.8164 117.793 12.9961 117.793 12.1055V11.6133C117.793 10.582 117.945 9.66406 118.25 8.85938C118.555 8.04688 118.969 7.35938 119.492 6.79688C120.016 6.23438 120.609 5.80859 121.273 5.51953C121.938 5.23047 122.625 5.08594 123.336 5.08594C124.242 5.08594 125.023 5.24219 125.68 5.55469C126.344 5.86719 126.887 6.30469 127.309 6.86719C127.73 7.42188 128.043 8.07812 128.246 8.83594C128.449 9.58594 128.551 10.4062 128.551 11.2969V12.2695H119.082V10.5H126.383V10.3359C126.352 9.77344 126.234 9.22656 126.031 8.69531C125.836 8.16406 125.523 7.72656 125.094 7.38281C124.664 7.03906 124.078 6.86719 123.336 6.86719C122.844 6.86719 122.391 6.97266 121.977 7.18359C121.562 7.38672 121.207 7.69141 120.91 8.09766C120.613 8.50391 120.383 9 120.219 9.58594C120.055 10.1719 119.973 10.8477 119.973 11.6133V12.1055C119.973 12.707 120.055 13.2734 120.219 13.8047C120.391 14.3281 120.637 14.7891 120.957 15.1875C121.285 15.5859 121.68 15.8984 122.141 16.125C122.609 16.3516 123.141 16.4648 123.734 16.4648C124.5 16.4648 125.148 16.3086 125.68 15.9961C126.211 15.6836 126.676 15.2656 127.074 14.7422L128.387 15.7852C128.113 16.1992 127.766 16.5938 127.344 16.9688C126.922 17.3438 126.402 17.6484 125.785 17.8828C125.176 18.1172 124.453 18.2344 123.617 18.2344Z" fill="#FAFAFA"/>
  </symbol>
  <symbol id="arrow-right" viewBox="0 0 24 24" xmlns="http://www.w3.org/2000/svg">
    <path stroke-linecap="round" stroke-linejoin="round" stroke-width="2" d="M9 5l7 7-7 7" />
  </symbol>
  <symbol id="arrow-down" viewBox="0 0 24 24" xmlns="http://www.w3.org/2000/svg">
    <path stroke-linecap="round" stroke-linejoin="round" d="M19 9l-7 7-7-7" />
  </symbol>
  <symbol id="plus-sm" viewBox="0 0 24 24" xmlns="http://www.w3.org/2000/svg">
    <path stroke-linecap="round" stroke-linejoin="round" stroke-width="2" d="M12 6v6m0 0v6m0-6h6m-6 0H6" />
  </symbol>
  <symbol id="phone" viewBox="0 0 20 20" fill="currentColor" xmlns="http://www.w3.org/2000/svg">
    <path d="M2 3a1 1 0 011-1h2.153a1 1 0 01.986.836l.74 4.435a1 1 0 01-.54 1.06l-1.548.773a11.037 11.037 0 006.105 6.105l.774-1.548a1 1 0 011.059-.54l4.435.74a1 1 0 01.836.986V17a1 1 0 01-1 1h-2C7.82 18 2 12.18 2 5V3z" />
  </symbol>
  <symbol id="location" viewBox="0 0 20 20" fill="currentColor" xmlns="http://www.w3.org/2000/svg">
    <path fill-rule="evenodd" d="M5.05 4.05a7 7 0 119.9 9.9L10 18.9l-4.95-4.95a7 7 0 010-9.9zM10 11a2 2 0 100-4 2 2 0 000 4z" clip-rule="evenodd" />
  </symbol>
  <symbol id="clock" viewBox="0 0 20 20" fill="currentColor" xmlns="http://www.w3.org/2000/svg">
    <path fill-rule="evenodd" d="M10 18a8 8 0 100-16 8 8 0 000 16zm1-12a1 1 0 10-2 0v4a1 1 0 00.293.707l2.828 2.829a1 1 0 101.415-1.415L11 9.586V6z" clip-rule="evenodd" />
  </symbol>
  <symbol id="close" viewBox="0 0 20 20" fill="currentColor" xmlns="http://www.w3.org/2000/svg">
    <path fill-rule="evenodd" d="M4.293 4.293a1 1 0 011.414 0L10 8.586l4.293-4.293a1 1 0 111.414 1.414L11.414 10l4.293 4.293a1 1 0 01-1.414 1.414L10 11.414l-4.293 4.293a1 1 0 01-1.414-1.414L8.586 10 4.293 5.707a1 1 0 010-1.414z" clip-rule="evenodd" />
  </symbol>
</svg>